<mxfile host="app.diagrams.net" modified="2024-05-06T18:04:07.748Z" agent="Mozilla/5.0 (Windows NT 10.0; Win64; x64) AppleWebKit/537.36 (KHTML, like Gecko) Chrome/124.0.0.0 Safari/537.36" etag="epHgK8BLpqmLbArZeLFG" version="24.3.1" type="device">
  <diagram name="Page-1" id="AqfM_kzSNvPFM1Hfkc8z">
    <mxGraphModel dx="988" dy="527" grid="1" gridSize="10" guides="1" tooltips="1" connect="1" arrows="1" fold="1" page="1" pageScale="1" pageWidth="850" pageHeight="1100" math="0" shadow="0">
      <root>
        <mxCell id="0" />
        <mxCell id="1" parent="0" />
        <mxCell id="xrE1PMndDaDaiqA36rkz-34" value="" style="rounded=0;whiteSpace=wrap;html=1;sketch=1;curveFitting=1;jiggle=2;" vertex="1" parent="1">
          <mxGeometry x="20" y="340" width="560" height="140" as="geometry" />
        </mxCell>
        <mxCell id="xrE1PMndDaDaiqA36rkz-1" value="|||" style="rounded=0;whiteSpace=wrap;html=1;fillColor=#ffe6cc;strokeColor=#d79b00;sketch=1;curveFitting=1;jiggle=2;" vertex="1" parent="1">
          <mxGeometry x="30" y="400" width="50" height="30" as="geometry" />
        </mxCell>
        <mxCell id="xrE1PMndDaDaiqA36rkz-2" value="trigger" style="rounded=0;whiteSpace=wrap;html=1;fillColor=#ffe6cc;strokeColor=#d79b00;gradientColor=none;sketch=1;curveFitting=1;jiggle=2;" vertex="1" parent="1">
          <mxGeometry x="30" y="440" width="50" height="30" as="geometry" />
        </mxCell>
        <mxCell id="xrE1PMndDaDaiqA36rkz-3" value="|" style="rounded=0;whiteSpace=wrap;html=1;fillColor=#dae8fc;strokeColor=#6c8ebf;opacity=20;sketch=1;curveFitting=1;jiggle=2;" vertex="1" parent="1">
          <mxGeometry x="170" y="400" width="20" height="30" as="geometry" />
        </mxCell>
        <mxCell id="xrE1PMndDaDaiqA36rkz-5" value="system prompt ID" style="rounded=0;whiteSpace=wrap;html=1;fillColor=#dae8fc;strokeColor=#6c8ebf;opacity=20;sketch=1;curveFitting=1;jiggle=2;" vertex="1" parent="1">
          <mxGeometry x="90" y="440" width="100" height="30" as="geometry" />
        </mxCell>
        <mxCell id="xrE1PMndDaDaiqA36rkz-6" value="ai" style="rounded=0;whiteSpace=wrap;html=1;fillColor=#dae8fc;strokeColor=#6c8ebf;opacity=20;sketch=1;curveFitting=1;jiggle=2;" vertex="1" parent="1">
          <mxGeometry x="90" y="400" width="80" height="30" as="geometry" />
        </mxCell>
        <mxCell id="xrE1PMndDaDaiqA36rkz-7" value="|" style="rounded=0;whiteSpace=wrap;html=1;fillColor=#f5f5f5;fontColor=#333333;strokeColor=#666666;opacity=20;sketch=1;curveFitting=1;jiggle=2;" vertex="1" parent="1">
          <mxGeometry x="280" y="400" width="20" height="30" as="geometry" />
        </mxCell>
        <mxCell id="xrE1PMndDaDaiqA36rkz-9" value="user prompt ID" style="rounded=0;whiteSpace=wrap;html=1;fillColor=#f5f5f5;fontColor=#333333;strokeColor=#666666;opacity=20;sketch=1;curveFitting=1;jiggle=2;" vertex="1" parent="1">
          <mxGeometry x="200" y="440" width="100" height="30" as="geometry" />
        </mxCell>
        <mxCell id="xrE1PMndDaDaiqA36rkz-10" value="default" style="rounded=0;whiteSpace=wrap;html=1;fillColor=#f5f5f5;fontColor=#333333;strokeColor=#666666;opacity=20;sketch=1;curveFitting=1;jiggle=2;" vertex="1" parent="1">
          <mxGeometry x="200" y="400" width="80" height="30" as="geometry" />
        </mxCell>
        <mxCell id="xrE1PMndDaDaiqA36rkz-13" value="prompt" style="rounded=0;whiteSpace=wrap;html=1;fillColor=#d5e8d4;strokeColor=#82b366;sketch=1;curveFitting=1;jiggle=2;" vertex="1" parent="1">
          <mxGeometry x="310" y="440" width="50" height="30" as="geometry" />
        </mxCell>
        <mxCell id="xrE1PMndDaDaiqA36rkz-14" value="Hi :-)" style="rounded=0;whiteSpace=wrap;html=1;fillColor=#d5e8d4;strokeColor=#82b366;sketch=1;curveFitting=1;jiggle=2;" vertex="1" parent="1">
          <mxGeometry x="310" y="400" width="50" height="30" as="geometry" />
        </mxCell>
        <mxCell id="xrE1PMndDaDaiqA36rkz-25" value="Hi, How are you?&amp;nbsp;" style="rounded=0;whiteSpace=wrap;html=1;sketch=1;curveFitting=1;jiggle=2;" vertex="1" parent="1">
          <mxGeometry x="450" y="400" width="120" height="30" as="geometry" />
        </mxCell>
        <mxCell id="xrE1PMndDaDaiqA36rkz-28" value="" style="shape=flexArrow;endArrow=classic;html=1;rounded=0;sketch=1;curveFitting=1;jiggle=2;flowAnimation=0;" edge="1" parent="1">
          <mxGeometry width="50" height="50" relative="1" as="geometry">
            <mxPoint x="380" y="414.71" as="sourcePoint" />
            <mxPoint x="440" y="415" as="targetPoint" />
          </mxGeometry>
        </mxCell>
        <mxCell id="xrE1PMndDaDaiqA36rkz-31" value="" style="endArrow=classic;html=1;rounded=0;sketch=1;curveFitting=1;jiggle=2;" edge="1" parent="1">
          <mxGeometry width="50" height="50" relative="1" as="geometry">
            <mxPoint x="220" y="360" as="sourcePoint" />
            <mxPoint x="240" y="390" as="targetPoint" />
          </mxGeometry>
        </mxCell>
        <mxCell id="xrE1PMndDaDaiqA36rkz-32" value="" style="endArrow=classic;html=1;rounded=0;sketch=1;curveFitting=1;jiggle=2;" edge="1" parent="1">
          <mxGeometry width="50" height="50" relative="1" as="geometry">
            <mxPoint x="160" y="360" as="sourcePoint" />
            <mxPoint x="140" y="390" as="targetPoint" />
          </mxGeometry>
        </mxCell>
        <mxCell id="xrE1PMndDaDaiqA36rkz-33" value="optional" style="text;html=1;align=center;verticalAlign=middle;whiteSpace=wrap;rounded=0;" vertex="1" parent="1">
          <mxGeometry x="160" y="340" width="60" height="30" as="geometry" />
        </mxCell>
        <mxCell id="xrE1PMndDaDaiqA36rkz-35" value="AI Response" style="text;html=1;align=center;verticalAlign=middle;whiteSpace=wrap;rounded=0;" vertex="1" parent="1">
          <mxGeometry x="425" y="340" width="90" height="30" as="geometry" />
        </mxCell>
        <mxCell id="xrE1PMndDaDaiqA36rkz-36" value="" style="endArrow=classic;html=1;rounded=0;sketch=1;curveFitting=1;jiggle=2;entryX=0.473;entryY=-0.075;entryDx=0;entryDy=0;entryPerimeter=0;" edge="1" parent="1" source="xrE1PMndDaDaiqA36rkz-35" target="xrE1PMndDaDaiqA36rkz-25">
          <mxGeometry width="50" height="50" relative="1" as="geometry">
            <mxPoint x="450" y="360" as="sourcePoint" />
            <mxPoint x="470" y="390" as="targetPoint" />
          </mxGeometry>
        </mxCell>
      </root>
    </mxGraphModel>
  </diagram>
</mxfile>
